<?xml version="1.0" encoding="utf-8"?>
<!-- Generator: Adobe Illustrator 22.0.0, SVG Export Plug-In . SVG Version: 6.00 Build 0)  -->
<svg version="1.1" id="Livello_1" xmlns="http://www.w3.org/2000/svg" xmlns:xlink="http://www.w3.org/1999/xlink" x="0px" y="0px"
	 viewBox="0 0 101.7 101.7" style="enable-background:new 0 0 101.7 101.7;" xml:space="preserve">
<style type="text/css">
	.st0{fill:#666666;}
</style>
<path class="st0" d="M22.6,48.5l9.5,7v-6h4.3c0.6,0,1-0.5,1-1c0-0.6-0.5-1-1-1h-4.3v-6L22.6,48.5z"/>
<path class="st0" d="M65.8,49.5h4.3v6l9.5-7l-9.5-7v6h-4.3c-0.6,0-1,0.5-1,1C64.8,49.1,65.3,49.5,65.8,49.5z"/>
<path class="st0" d="M73.7,31.5V19.7h0c-0.1-0.5-0.5-0.8-1-0.8c-0.5,0-0.9,0.4-1,0.8h0v0.2c0,0,0,0,0,0s0,0,0,0v12.6l7.7,6.5
	c0.7,0.6,1.1,1.4,1.1,2.3v43.5c0,0.7-0.5,1.2-1.2,1.2H23c-0.7,0-1.2-0.5-1.2-1.2V41.3c0-0.9,0.4-1.7,1.1-2.3l26.4-22.3
	c0.5-0.5,1.2-0.7,1.9-0.7c0.7,0,1.4,0.3,1.9,0.7l11.4,9.7l0.3,0.3v-7h0c-0.1-0.5-0.5-0.8-1-0.8s-0.9,0.4-1,0.8h0v2.6l-8.4-7.1
	c-1.9-1.6-4.6-1.6-6.5,0L21.5,37.5c-1.1,1-1.8,2.4-1.8,3.8v43.5c0,1.8,1.5,3.2,3.2,3.2h56.3c1.8,0,3.2-1.5,3.2-3.2V41.3
	c0-1.5-0.7-2.9-1.8-3.8L73.7,31.5z"/>
<g>
	<path class="st0" d="M56.6,79.9c1-1.3,1.6-2.8,1.6-4.5c0-1-0.2-1.9-0.6-2.8c0.8-0.5,1.2-1.3,1.2-2.3c0-1.5-1.2-2.7-2.7-2.7
		c-0.9,0-1.8,0.5-2.3,1.2c-1.7-0.7-3.7-0.7-5.5,0c-0.5-0.8-1.3-1.2-2.3-1.2c-1.5,0-2.7,1.3-2.7,2.7c0,0.9,0.5,1.7,1.2,2.3
		c-0.4,0.9-0.6,1.8-0.6,2.8c0,1.6,0.6,3.2,1.6,4.5l-2,2.1c-0.3,0.3-0.3,0.7,0,1c0.1,0.1,0.3,0.2,0.5,0.2c0.2,0,0.4-0.1,0.5-0.2
		l2-2.1c1.3,1,2.8,1.6,4.5,1.6c1.6,0,3.2-0.6,4.4-1.6l2,2.1c0.3,0.3,0.7,0.3,1,0c0.1-0.1,0.2-0.3,0.2-0.5s-0.1-0.4-0.2-0.5
		L56.6,79.9z M47.1,69.7c0,0-0.1,0.1-0.1,0.1l0,0c-0.1,0.1-0.2,0.1-0.2,0.2c0,0-0.1,0.1-0.1,0.1c0,0-0.1,0.1-0.1,0.1
		c-0.1,0.1-0.2,0.2-0.3,0.3l0,0c-0.1,0.1-0.3,0.3-0.4,0.4c0,0-0.1,0.1-0.1,0.1c0,0,0,0.1-0.1,0.1c0,0-0.1,0.1-0.1,0.1
		c0,0-0.1,0.1-0.1,0.1c-0.3-0.2-0.5-0.6-0.5-1c0-0.7,0.6-1.3,1.3-1.3c0.4,0,0.8,0.2,1,0.5C47.1,69.6,47.1,69.6,47.1,69.7z
		 M57.4,70.4c0,0.4-0.2,0.8-0.5,1c-0.1-0.1-0.1-0.2-0.2-0.3c0,0,0-0.1-0.1-0.1c0,0,0-0.1-0.1-0.1c-0.1-0.2-0.3-0.3-0.4-0.5
		c-0.1-0.1-0.2-0.2-0.3-0.3c0,0-0.1-0.1-0.1-0.1c0,0-0.1-0.1-0.1-0.1l-0.3-0.2c-0.1-0.1-0.1-0.1-0.2-0.2c0.3-0.3,0.6-0.5,1-0.5
		C56.8,69.1,57.4,69.7,57.4,70.4z M54.9,79.6c-1.1,1-2.4,1.5-3.8,1.5c-1.5,0-3-0.6-4.1-1.7c-1-1-1.6-2.4-1.6-3.9
		c0-1.1,0.3-2.2,0.9-3.1l0.1-0.1c0,0,0.1-0.1,0.1-0.1c0-0.1,0.1-0.1,0.1-0.2c0,0,0,0,0-0.1l0,0c0.2-0.3,0.5-0.5,0.7-0.7l0.1-0.1l0,0
		c0.1-0.1,0.2-0.2,0.3-0.2c0,0,0,0,0.1-0.1c0.9-0.6,2-0.9,3.1-0.9c1.1,0,2.2,0.3,3.1,0.9c0,0,0.1,0.1,0.1,0.1
		c0.1,0.1,0.2,0.2,0.3,0.2c0,0,0,0,0.1,0.1l0.1,0.1c0.1,0.1,0.2,0.1,0.2,0.2c0.1,0.1,0.1,0.1,0.2,0.2c0.1,0.1,0.1,0.1,0.2,0.2
		c0,0,0,0.1,0.1,0.1c0,0,0,0,0,0.1c0.1,0.1,0.1,0.2,0.2,0.3c0,0,0,0.1,0.1,0.1c0,0,0,0,0,0c0.6,0.9,0.9,2,0.9,3.1
		c0,1.4-0.5,2.8-1.5,3.8L54.9,79.6z"/>
	<path class="st0" d="M53.4,74.7h-1.6v-2.6c0-0.4-0.3-0.7-0.7-0.7s-0.7,0.3-0.7,0.7v3.3c0,0.4,0.3,0.7,0.7,0.7h2.3
		c0.4,0,0.7-0.3,0.7-0.7C54.1,75,53.8,74.7,53.4,74.7z"/>
</g>
</svg>
