<?xml version="1.0" encoding="utf-8"?>
<!-- Generator: Adobe Illustrator 22.0.0, SVG Export Plug-In . SVG Version: 6.00 Build 0)  -->
<svg version="1.1" id="Livello_1" xmlns="http://www.w3.org/2000/svg" xmlns:xlink="http://www.w3.org/1999/xlink" x="0px" y="0px"
	 viewBox="0 0 101.7 101.7" style="enable-background:new 0 0 101.7 101.7;" xml:space="preserve">
<style type="text/css">
	.st0{fill:#676766;}
</style>
<path class="st0" d="M10.3,76.6H6c-0.6,0-1,0.5-1,1c0,0.6,0.5,1,1,1h4.3v6l9.5-7l-9.5-7V76.6z"/>
<path class="st0" d="M98.1,76.6h-4.3v-6l-9.5,7l9.5,7v-6h4.3c0.6,0,1-0.5,1-1C99.2,77,98.7,76.6,98.1,76.6z"/>
<path class="st0" d="M74.7,31.5V19.6h0c-0.1-0.5-0.5-0.8-1-0.8c-0.5,0-0.9,0.4-1,0.8h0v0.2c0,0,0,0,0,0c0,0,0,0,0,0v12.6l7.7,6.5
	c0.7,0.6,1.1,1.4,1.1,2.3v43.5c0,0.7-0.5,1.2-1.2,1.2H23.9c-0.7,0-1.2-0.5-1.2-1.2V41.2c0-0.9,0.4-1.7,1.1-2.3l26.4-22.3
	c0.5-0.5,1.2-0.7,1.9-0.7c0.7,0,1.4,0.3,1.9,0.7l11.4,9.7l0.3,0.3v-7h0c-0.1-0.5-0.5-0.8-1-0.8c-0.5,0-0.9,0.4-1,0.8h0v2.6l-8.4-7.1
	c-1.9-1.6-4.6-1.6-6.5,0L22.4,37.4c-1.1,1-1.8,2.4-1.8,3.8v43.5c0,1.8,1.5,3.2,3.2,3.2h56.3c1.8,0,3.2-1.5,3.2-3.2V41.2
	c0-1.5-0.7-2.9-1.8-3.8L74.7,31.5z"/>
</svg>
